<!DOCTYPE svg PUBLIC "-//W3C//DTD SVG 1.1//EN" "http://www.w3.org/Graphics/SVG/1.1/DTD/svg11.dtd">
<!-- Uploaded to: SVG Repo, www.svgrepo.com, Transformed by: SVG Repo Mixer Tools -->
<svg  class="arrowDownSvg" height="30" width="30" version="1.1" id="_x32_" xmlns="http://www.w3.org/2000/svg" xmlns:xlink="http://www.w3.org/1999/xlink" viewBox="-51.2 -51.2 614.40 614.40" xml:space="preserve" fill="#0a33ff" stroke="#0a33ff">



<g  id="SVGRepo_bgCarrier" stroke-width="0"/>
<g  id="SVGRepo_tracerCarrier" class="svgColorChange" stroke-linecap="round" stroke-linejoin="round" stroke="#d1f41f" stroke-width="29.695999999999998">


   <style type="text/css">
 </style>
  <g > <path  class="st0" d="M487.129,235.987c-16.613-16.438-43.417-16.294-59.85,0.328L298.323,366.669V42.328 C298.323,18.966,279.374,0,256.007,0c-23.388,0-42.328,18.966-42.328,42.328v324.34L84.729,236.316 c-16.438-16.622-43.242-16.766-59.864-0.328c-16.618,16.438-16.767,43.252-0.33,59.875l201.37,203.563 C233.867,507.48,244.695,512,256.007,512c11.312,0,22.124-4.52,30.091-12.575l201.364-203.563 C503.895,279.239,503.766,252.425,487.129,235.987z"/>

</g>
</g>
<g id="SVGRepo_iconCarrier" class="svgColorChange"> <style type="text/css"> </style>
 <g>
   <path class="st0" d="M487.129,235.987c-16.613-16.438-43.417-16.294-59.85,0.328L298.323,366.669V42.328 C298.323,18.966,279.374,0,256.007,0c-23.388,0-42.328,18.966-42.328,42.328v324.34L84.729,236.316 c-16.438-16.622-43.242-16.766-59.864-0.328c-16.618,16.438-16.767,43.252-0.33,59.875l201.37,203.563 C233.867,507.48,244.695,512,256.007,512c11.312,0,22.124-4.52,30.091-12.575l201.364-203.563 C503.895,279.239,503.766,252.425,487.129,235.987z"/>
 </g>
 </g>


</svg>
