<?xml version="1.0" encoding="iso-8859-1"?>
<!-- Generator: Adobe Illustrator 19.0.0, SVG Export Plug-In . SVG Version: 6.00 Build 0)  -->
<svg version="1.1" id="Layer_1" xmlns="http://www.w3.org/2000/svg" xmlns:xlink="http://www.w3.org/1999/xlink" x="0px" y="0px"
	 viewBox="0 0 512 512" style="enable-background:new 0 0 512 512;" xml:space="preserve">
<polygon style="fill:white;" points="261.1,256 384.51,10.199 250.901,10.199 127.49,256 250.901,501.801 384.51,501.801 "/>
<g>
	<path style="fill:#248A9C;" d="M384.51,512h-133.61c-3.857,0-7.384-2.176-9.115-5.623l-123.41-245.801
		c-1.446-2.879-1.446-6.274,0-9.154L241.786,5.622C243.516,2.177,247.043,0,250.901,0h133.61c3.538,0,6.822,1.834,8.681,4.845
		c1.858,3.011,2.021,6.769,0.434,9.931L272.512,256l121.112,241.224c1.588,3.163,1.424,6.92-0.434,9.931
		C391.331,510.166,388.048,512,384.51,512z M257.192,491.602h110.785L251.986,260.576c-1.446-2.879-1.446-6.274,0-9.154
		L367.977,20.398H257.192L138.902,256L257.192,491.602z"/>
	<path style="fill:#248A9C;" d="M249.889,430.745c-3.736,0-7.332-2.06-9.123-5.626l-3.241-6.456
		c-2.527-5.034-0.494-11.163,4.54-13.691c5.036-2.528,11.163-0.493,13.691,4.54l3.241,6.456c2.527,5.034,0.494,11.163-4.54,13.691
		C252.988,430.396,251.427,430.745,249.889,430.745z"/>
	<path style="fill:#248A9C;" d="M230.26,391.65c-3.735,0-7.332-2.059-9.122-5.625l-62.985-125.449
		c-2.528-5.034-0.496-11.164,4.538-13.691c5.038-2.529,11.165-0.496,13.691,4.538l62.985,125.449
		c2.528,5.034,0.496,11.164-4.538,13.691C233.36,391.301,231.798,391.65,230.26,391.65z"/>
</g>
<g>
</g>
<g>
</g>
<g>
</g>
<g>
</g>
<g>
</g>
<g>
</g>
<g>
</g>
<g>
</g>
<g>
</g>
<g>
</g>
<g>
</g>
<g>
</g>
<g>
</g>
<g>
</g>
<g>
</g>
</svg>
