<?xml version="1.0" encoding="iso-8859-1"?>
<!-- Uploaded to: SVG Repo, www.svgrepo.com, Generator: SVG Repo Mixer Tools -->
<svg height="30" width="30" version="1.1" id="Layer_1" xmlns="http://www.w3.org/2000/svg" xmlns:xlink="http://www.w3.org/1999/xlink" 
	 viewBox="0 0 512 512" xml:space="preserve">
<path style="fill:#EC589B;" d="M379.914,176.034l36.565-36.565l42.229,42.229l43.948-43.948l-42.229-42.229l42.229-42.229
	L458.708,9.345l-42.229,42.229L374.25,9.345l-43.948,43.948l42.229,42.229l-36.565,36.565
	c-80.252-59.009-194.055-52.24-266.607,20.313c-80.019,80.019-80.019,210.222,0,290.242s210.222,80.019,290.242,0
	C432.153,370.089,438.923,256.286,379.914,176.034z M113.308,398.693c-55.787-55.787-55.787-146.559,0-202.345
	s146.559-55.787,202.347,0c55.787,55.787,55.787,146.559,0,202.345S169.095,454.48,113.308,398.693z"/>
<path d="M190.894,103.14c49.844-5.992,99.4,6.961,139.536,36.474c1.657,1.219,3.6,1.817,5.532,1.817
	c2.407,0,4.801-0.927,6.611-2.737l36.565-36.565c3.649-3.649,3.649-9.566,0-13.214l-35.62-35.621l30.734-30.734l35.621,35.62
	c3.649,3.649,9.566,3.649,13.214,0l35.62-35.62l30.734,30.734l-3.947,3.947c-3.649,3.649-3.649,9.566,0,13.214
	c3.649,3.649,9.566,3.649,13.214,0L509.263,59.9c3.649-3.649,3.649-9.566,0-13.214L465.315,2.737c-3.648-3.651-9.565-3.649-13.214,0
	l-35.62,35.62l-35.621-35.62c-3.649-3.649-9.566-3.649-13.214,0l-43.949,43.948c-3.649,3.649-3.649,9.566,0,13.214l35.62,35.621
	l-24.389,24.389c-42.753-29.04-94.372-41.567-146.262-35.325c-5.125,0.616-8.779,5.269-8.162,10.392
	C181.117,100.101,185.765,103.756,190.894,103.14z"/>
<path d="M473.643,95.521l4.508-4.508c3.649-3.649,3.649-9.566,0-13.214c-3.649-3.651-9.566-3.649-13.214,0l-11.115,11.115
	c-3.649,3.649-3.649,9.566,0,13.214l35.62,35.62l-30.734,30.734l-35.62-35.62c-3.648-3.649-9.565-3.649-13.214,0l-36.566,36.565
	c-3.264,3.264-3.656,8.424-0.921,12.143c27.422,37.293,40.7,83.459,37.387,129.991c-3.347,46.999-23.511,91.204-56.779,124.472
	c-36.936,36.936-86.127,57.277-138.512,57.277s-101.578-20.341-138.514-57.277c-36.937-36.936-57.28-86.128-57.28-138.514
	s20.341-101.576,57.278-138.514c22.938-22.938,51.424-39.925,82.379-49.126c4.948-1.47,7.765-6.672,6.294-11.62
	s-6.671-7.767-11.62-6.294c-33.926,10.083-65.14,28.696-90.27,53.826C22.286,186.257,0,240.142,0,297.519
	c0,57.378,22.286,111.262,62.753,151.729C103.219,489.715,157.104,512,214.481,512s111.262-22.285,151.728-62.752
	c36.449-36.447,58.539-84.876,62.205-136.359c3.435-48.256-9.431-96.164-36.325-135.814l24.392-24.391l35.62,35.62
	c3.649,3.649,9.566,3.649,13.214,0l43.948-43.948c3.649-3.649,3.649-9.566,0-13.214L473.643,95.521z"/>
<path d="M106.7,189.739c-28.746,28.746-44.577,67.023-44.577,107.78s15.832,79.035,44.577,107.78s67.023,44.577,107.78,44.577
	s79.034-15.831,107.78-44.577c59.43-59.43,59.431-156.131,0-215.561S166.13,130.31,106.7,189.739z M309.046,392.086
	c-52.144,52.143-136.987,52.144-189.13,0c-25.217-25.217-39.104-58.801-39.104-94.566c0-35.766,13.887-69.349,39.103-94.566
	s58.8-39.104,94.566-39.104s69.35,13.887,94.566,39.104c25.215,25.217,39.103,58.8,39.103,94.566S334.262,366.869,309.046,392.086z"
	/>
</svg>
