<?xml version="1.0" encoding="iso-8859-1"?>
<!-- Uploaded to: SVG Repo, www.svgrepo.com, Generator: SVG Repo Mixer Tools -->
<svg height="800px" width="800px" version="1.1" id="Layer_1" xmlns="http://www.w3.org/2000/svg" xmlns:xlink="http://www.w3.org/1999/xlink" 
	 viewBox="0 0 512.001 512.001" xml:space="preserve">
<path style="fill:#F7B239;" d="M482.222,308.684v0.012c-9.492,41.017-30.214,79.964-62.176,111.926
	c-2.508,2.508-5.051,4.947-7.651,7.318c-91.354,83.531-233.184,81.091-321.593-7.318c-90.929-90.917-90.929-238.327,0-329.244
	c90.917-90.917,238.327-90.917,329.244,0C479.001,150.332,499.722,233.034,482.222,308.684z"/>
<path style="fill:#E09B2D;" d="M133.104,378.318c-83.752-83.752-90.351-215.435-19.805-306.745
	c-7.813,6.038-15.333,12.637-22.501,19.805c-90.918,90.918-90.918,238.327,0,329.245s238.327,90.918,329.245,0
	c7.167-7.167,13.766-14.687,19.805-22.501C348.539,468.668,216.855,462.068,133.104,378.318z"/>
<g>
	<path style="fill:#4D4D4D;" d="M353.641,185.608c-21.331,0-40.598-10.933-51.539-29.244c-2.444-4.091-1.109-9.39,2.982-11.833
		c4.093-2.444,9.39-1.109,11.834,2.982c7.795,13.047,21.523,20.838,36.724,20.838c15.199,0,28.926-7.79,36.721-20.838
		c2.444-4.091,7.743-5.427,11.833-2.982c4.091,2.445,5.426,7.742,2.982,11.833C394.237,174.675,374.971,185.607,353.641,185.608z"/>
	<path style="fill:#4D4D4D;" d="M157.202,185.608C157.2,185.608,157.202,185.608,157.202,185.608
		c-21.331,0-40.597-10.933-51.538-29.244c-2.444-4.091-1.109-9.39,2.982-11.833c4.093-2.444,9.39-1.109,11.834,2.982
		c7.795,13.047,21.522,20.837,36.721,20.838c15.2,0,28.929-7.79,36.724-20.838c2.445-4.093,7.747-5.425,11.834-2.982
		c4.091,2.445,5.426,7.742,2.982,11.833C197.801,174.675,178.531,185.608,157.202,185.608z"/>
	<path style="fill:#4D4D4D;" d="M121.95,305.43c-2.209,0-4.417-0.842-6.103-2.528c-3.37-3.37-3.37-8.834,0-12.203
		c76.963-76.961,202.185-76.96,279.145,0c3.37,3.37,3.37,8.834,0,12.203c-3.371,3.37-8.834,3.37-12.204,0
		c-70.23-70.23-184.504-70.232-254.736,0C126.367,304.588,124.158,305.43,121.95,305.43z"/>
</g>
<path style="fill:#E09B2D;" d="M216.389,294.436c-3.772,0-7.236-2.492-8.305-6.303c-1.286-4.588,1.391-9.352,5.979-10.638
	c27.057-7.586,55.658-7.584,82.713,0c4.588,1.286,7.266,6.05,5.979,10.639c-1.287,4.587-6.052,7.267-10.638,5.979
	c-24.005-6.731-49.385-6.731-73.395,0C217.944,294.332,217.16,294.436,216.389,294.436z"/>
<g>
	<path style="fill:#E6E6E6;" d="M116.746,328.863l58.139-100.167L62.199,278.355c-6.084-9.126-16.467-15.141-28.258-15.141
		C15.197,263.214,0,278.41,0,297.155c0,11.322,5.548,21.341,14.068,27.508c-7.015,8.247-11.257,18.927-11.257,30.604
		c0,26.108,21.165,47.273,47.273,47.273c13.304,0,25.317-5.504,33.907-14.35c4.432,2.122,9.395,3.311,14.636,3.311
		c18.745,0,33.941-15.197,33.941-33.941C132.57,345.477,126.252,334.878,116.746,328.863z"/>
	<path style="fill:#E6E6E6;" d="M497.93,324.664c7.018,8.25,11.252,18.927,11.252,30.605c0,26.106-21.159,47.265-47.276,47.265
		c-13.3,0-25.312-5.5-33.907-14.348c-4.43,2.129-9.389,3.314-14.635,3.314c-18.743,0-33.941-15.199-33.941-33.941
		c0-12.081,6.317-22.678,15.832-28.695l-58.138-100.168l112.686,49.658c6.075-9.124,16.464-15.141,28.258-15.141
		c15.832,0,29.144,10.85,32.883,25.519c0.69,2.692,1.059,5.511,1.059,8.422C512,308.475,506.443,318.498,497.93,324.664z"/>
</g>
</svg>