<?xml version="1.0" encoding="iso-8859-1"?>
<!-- Uploaded to: SVG Repo, www.svgrepo.com, Generator: SVG Repo Mixer Tools -->
<svg height="800px" width="800px" version="1.1" id="Layer_1" xmlns="http://www.w3.org/2000/svg" xmlns:xlink="http://www.w3.org/1999/xlink" 
	 viewBox="0 0 512 512" xml:space="preserve">
<path style="fill:#60BFE1;" d="M414.234,512H97.766c-10.687,0-19.352-8.665-19.352-19.352v-61.371
	c0-56.711,27.438-110.477,73.397-143.823c4.203-3.05,9.458-4.282,14.58-3.42c5.122,0.863,9.682,3.749,12.655,8.008L256,402.313
	l76.955-110.272c2.971-4.257,7.528-7.142,12.647-8.007c5.118-0.864,10.371,0.364,14.575,3.41
	c7.565,5.48,14.766,11.623,21.399,18.257c33.541,33.555,52.01,78.152,52.01,125.577v61.371C433.586,503.336,424.922,512,414.234,512
	z"/>
<path style="fill:#2E9ADA;" d="M381.576,305.701c-6.634-6.634-13.834-12.776-21.399-18.257c-4.205-3.046-9.458-4.274-14.575-3.41
	c-5.119,0.864-9.676,3.749-12.647,8.007L256,402.313V512h158.234c10.687,0,19.352-8.665,19.352-19.352v-61.371
	C433.586,383.852,415.117,339.256,381.576,305.701z"/>
<path style="fill:#C7E5F4;" d="M236.648,442.213V512h38.704v-69.787l99.62-142.749c-4.723-4.264-9.657-8.298-14.776-12.007
	c-0.003-0.001-0.005-0.004-0.008-0.006c-0.003-0.001-0.005-0.004-0.009-0.006c0,0-0.001-0.001-0.003-0.001
	c0-0.001-0.001-0.001-0.001-0.001c-30.446-22.081-66.469-33.751-104.175-33.751c-37.713,0-73.741,11.674-104.188,33.76
	c-0.003,0.003-0.005,0.005-0.009,0.006c-5.167,3.749-10.086,7.77-14.772,12.011L236.648,442.213z"/>
<path style="fill:#FFEAB2;" d="M327.572,208.202c-2.45,0-4.921-0.466-7.28-1.424c-7.296-2.965-12.068-10.054-12.068-17.928v-10.863
	H203.776v10.863c0,7.875-4.772,14.964-12.067,17.928c-7.297,2.963-15.66,1.211-21.153-4.43C97.581,127.378,150.506,0,256,0
	c105.474,0,158.426,127.368,85.444,202.347C337.728,206.165,332.697,208.202,327.572,208.202z"/>
<path style="fill:#FFE08C;" d="M256,0v177.986h52.224v10.863c0,7.875,4.771,14.964,12.068,17.928c2.36,0.959,4.83,1.424,7.28,1.424
	c5.124,0,10.155-2.037,13.871-5.855C414.417,127.378,361.492,0,256,0z"/>
<path style="fill:#C7E5F4;" d="M327.576,238.428H184.424c-10.687,0-19.352-8.665-19.352-19.352v-60.442
	c0-10.687,8.665-19.352,19.352-19.352h143.153c10.687,0,19.352,8.665,19.352,19.352v60.442
	C346.928,229.764,338.265,238.428,327.576,238.428z"/>
<g>
	<path style="fill:#60BFE1;" d="M360.196,287.457c-0.003-0.001-0.005-0.004-0.008-0.006c-0.003-0.001-0.005-0.004-0.009-0.006
		c0,0-0.001-0.001-0.003-0.001c0-0.001-0.001-0.001-0.001-0.001c-30.446-22.081-66.469-33.751-104.175-33.751V512h19.352v-69.787
		l99.62-142.749C370.249,295.201,365.315,291.166,360.196,287.457z"/>
	<path style="fill:#60BFE1;" d="M327.576,139.282H256v99.146h71.576c10.687,0,19.352-8.665,19.352-19.352v-60.442
		C346.928,147.947,338.265,139.282,327.576,139.282z"/>
</g>
</svg>