<?xml version="1.0" ?><!-- Uploaded to: SVG Repo, www.svgrepo.com, Generator: SVG Repo Mixer Tools -->
<svg fill="#000000" width="20" height="20" viewBox="0 0 64 64" data-name="Layer 1" id="Layer_1" xmlns="http://www.w3.org/2000/svg"><title/><path d="M48,21H16V62H48ZM41,46H38V38.91425A6.25124,6.25124,0,0,0,37,35.5V60H32.5V46h-1V60H27V35.5a3.414,3.414,0,0,0-1,2.41418V46H23V36.49622A4.49619,4.49619,0,0,1,27.49622,32h1.8833a3.99859,3.99859,0,1,1,5.241,0h1.8833A4.49619,4.49619,0,0,1,41,36.49622Z"/><polygon points="32 2 10 20 54 20 32 2"/></svg>
