<?xml version="1.0" encoding="iso-8859-1"?>
<!-- Uploaded to: SVG Repo, www.svgrepo.com, Generator: SVG Repo Mixer Tools -->
<svg fill="#000000" height="30" width="30" version="1.1" id="Layer_1" xmlns="http://www.w3.org/2000/svg" xmlns:xlink="http://www.w3.org/1999/xlink" 
	 viewBox="0 0 512.001 512.001" xml:space="preserve">
<g>
	<g>
		<path d="M428.708,42.387V8.71c0-4.81-3.899-8.71-8.71-8.71s-8.71,3.9-8.71,8.71v33.676c-35.315,4.311-62.764,34.465-62.764,70.93
			c0,15.558,5.117,30.738,14.47,43.097v74.842l-98.283-93.015v-19.884c0-4.81-3.899-8.71-8.71-8.71s-8.71,3.9-8.71,8.71v19.884
			l-51.223,48.477c-3.494,3.306-3.647,8.819-0.339,12.314c3.306,3.494,8.819,3.644,12.314,0.339l47.959-45.388L362.995,255.24
			v239.34h-25.677v-54.942c0-17.29-14.066-31.356-31.356-31.356h-2.705c-17.29,0-31.356,14.066-31.356,31.356v54.942h-31.81v-54.942
			c0-17.29-14.066-31.356-31.356-31.356h-2.706c-17.29,0-31.356,14.066-31.356,31.356v54.942h-25.665V255.241l41.148-38.943
			c3.494-3.306,3.647-8.819,0.339-12.314c-3.307-3.494-8.82-3.645-12.314-0.339l-29.174,27.611v-74.845
			c9.345-12.365,14.458-27.543,14.458-43.094c0-36.465-27.448-66.618-62.76-70.93V8.71c0-4.81-3.899-8.71-8.71-8.71
			c-4.811,0-8.71,3.9-8.71,8.71v33.677c-35.312,4.314-62.757,34.467-62.757,70.93c0,15.565,5.113,30.745,14.459,43.097v296.162
			c0,4.81,3.899,8.71,8.71,8.71c4.811,0,8.71-3.9,8.71-8.71V337.094h79.179v157.488H52.409v-12.972c0-4.81-3.899-8.71-8.71-8.71
			c-4.811,0-8.71,3.9-8.71,8.71v21.682c0,4.81,3.899,8.71,8.71,8.71h424.592c4.811,0,8.71-3.9,8.71-8.71V156.414
			c9.353-12.36,14.47-27.539,14.47-43.097C491.472,76.855,464.023,46.703,428.708,42.387z M131.588,319.674H52.409v-157.58h79.179
			V319.674z M136.004,144.673H47.99c-6.493-9.106-10.04-20.093-10.04-31.356c0-29.792,24.217-54.03,53.995-54.059
			c0.017,0,0.034,0.002,0.051,0.002s0.035-0.002,0.053-0.002c29.779,0.028,53.997,24.267,53.997,54.059
			C146.047,124.569,142.499,135.555,136.004,144.673z M222.67,494.58h-30.578v-54.942c0-7.685,6.251-13.936,13.936-13.936h2.706
			c7.685,0,13.936,6.251,13.936,13.936V494.58z M319.896,494.58H289.32v-54.942c0-7.685,6.251-13.936,13.936-13.936h2.705
			c7.685,0,13.936,6.251,13.936,13.936V494.58z M459.582,319.673h-6.155c-4.811,0-8.71,3.9-8.71,8.71c0,4.81,3.899,8.71,8.71,8.71
			h6.155V494.58h-79.168V337.093H430.2c4.811,0,8.71-3.9,8.71-8.71c0-4.81-3.899-8.71-8.71-8.71h-49.786v-157.58h79.168V319.673z
			 M463.999,144.672h-88.007c-6.5-9.113-10.051-20.099-10.051-31.356c0.002-29.792,24.222-54.032,54.002-54.059
			c0.019,0,0.036,0.002,0.055,0.002c0.017,0,0.034-0.002,0.05-0.002c29.783,0.03,54.003,24.268,54.003,54.059
			C474.051,124.573,470.499,135.559,463.999,144.672z"/>
	</g>
</g>
<g>
	<g>
		<path d="M419.992,355.884c-14.548,0-26.385,11.842-26.385,26.397v45.907c0,4.81,3.899,8.71,8.71,8.71h35.362
			c4.811,0,8.71-3.9,8.71-8.71v-45.907C446.389,367.726,434.547,355.884,419.992,355.884z M428.969,419.478h-17.943v-37.197
			c0-4.95,4.022-8.977,8.965-8.977c4.951,0,8.977,4.028,8.977,8.977V419.478z"/>
	</g>
</g>
<g>
	<g>
		<path d="M419.992,189.988c-14.548,0-26.385,11.842-26.385,26.397v84.87c0,4.81,3.899,8.71,8.71,8.71h35.362
			c4.811,0,8.71-3.9,8.71-8.71v-84.87C446.389,201.831,434.547,189.988,419.992,189.988z M428.969,292.545h-17.943v-76.16
			c0-4.95,4.022-8.977,8.965-8.977c4.951,0,8.977,4.028,8.977,8.977V292.545z"/>
	</g>
</g>
<g>
	<g>
		<path d="M92,355.884c-14.555,0-26.397,11.842-26.397,26.397v45.907c0,4.81,3.899,8.71,8.71,8.71h35.373
			c4.811,0,8.71-3.9,8.71-8.71v-45.907C118.396,367.726,106.555,355.884,92,355.884z M100.974,419.478H83.02v-37.197h0.001
			c0-4.95,4.027-8.977,8.977-8.977s8.976,4.028,8.976,8.977V419.478z"/>
	</g>
</g>
<g>
	<g>
		<path d="M91.999,189.988c-14.555,0-26.397,11.842-26.397,26.397v84.87c0,4.81,3.899,8.71,8.71,8.71h35.374
			c4.811,0,8.71-3.9,8.71-8.71v-84.87C118.396,201.829,106.553,189.988,91.999,189.988z M83.021,292.545v-76.16
			c0-4.95,4.027-8.977,8.977-8.977s8.976,4.028,8.976,8.977v76.16H83.021z"/>
	</g>
</g>
<g>
	<g>
		<path d="M314.095,297.106l21.507-37.25c1.556-2.694,1.556-6.016,0-8.71c-1.556-2.694-4.43-4.355-7.543-4.355h-43.012
			l-21.507-37.251c-1.556-2.694-4.43-4.355-7.543-4.355c-3.112,0-5.987,1.661-7.543,4.355l-21.507,37.251h-43.013
			c-3.112,0-5.987,1.661-7.543,4.355c-1.556,2.694-1.556,6.016,0,8.71l21.507,37.25l-21.507,37.25c-1.556,2.694-1.556,6.016,0,8.71
			c1.556,2.694,4.43,4.355,7.543,4.355h43.013l21.507,37.251c1.556,2.694,4.43,4.355,7.543,4.355c3.112,0,5.987-1.661,7.543-4.355
			l21.507-37.251h43.012c3.112,0,5.987-1.661,7.543-4.355c1.556-2.694,1.556-6.016,0-8.71L314.095,297.106z M255.998,231.315
			l8.935,15.476h-17.869L255.998,231.315z M216.89,264.211l-8.935,15.475l-8.934-15.475H216.89z M199.021,330l8.935-15.475
			L216.891,330H199.021z M255.998,362.896l-8.935-15.476h17.869L255.998,362.896z M274.99,330h-37.985l-18.992-32.895l18.992-32.895
			h37.985l18.991,32.895L274.99,330z M295.104,330l8.934-15.475L312.972,330H295.104z M304.038,279.686l-8.934-15.475h17.868
			L304.038,279.686z"/>
	</g>
</g>
</svg>
