<?xml version="1.0" encoding="utf-8"?>
<!-- Uploaded to: SVG Repo, www.svgrepo.com, Generator: SVG Repo Mixer Tools -->
<svg fill="#000000" version="1.2" baseProfile="tiny" id="Layer_1" xmlns="http://www.w3.org/2000/svg" xmlns:xlink="http://www.w3.org/1999/xlink"
	  viewBox="0 0 256 256" xml:space="preserve">
<g id="XMLID_149_">
	<path id="XMLID_17_" d="M22.7,51.2v136.7h6.6V54.5h19.7l36.5,20.4c1.3,1.3,3.4,1.3,4.6,0l30.8-30.7h32.5c1.1,0,2.1-0.5,2.7-1.4
		l18.3-26v159h6.6V87.3h19.7v33.5c0,1.8,1.5,3.3,3.3,3.3h17.8v24.3c0,0.9,0.3,1.7,1,2.3l13.5,13.5v23.6h6.6v-25c0-0.9-0.3-1.7-1-2.3
		l-13.5-13.5v-26.3c0-1.8-1.5-3.3-3.3-3.3h-17.8V84c0-1.8-1.5-3.3-3.3-3.3h-23V6.4c0-1.4-0.9-2.7-2.3-3.1c-1.4-0.4-2.9,0.1-3.7,1.2
		l-23.3,33.1h-32.2c-0.9,0-1.7,0.3-2.3,1L87.8,67.9l-35.2-19c-0.6-0.6-1.4-1-2.3-1H25.9C24.1,47.9,22.7,49.4,22.7,51.2z"/>
	<rect id="XMLID_16_" x="126.5" y="57.3" width="17.5" height="17.5"/>
	<rect id="XMLID_15_" x="126.5" y="129" width="17.5" height="17.5"/>
	<rect id="XMLID_14_" x="197.3" y="129" width="17.5" height="17.5"/>
	<rect id="XMLID_13_" x="197.3" y="162.2" width="17.5" height="17.5"/>
	<rect id="XMLID_12_" x="126.5" y="81.5" width="17.5" height="17.5"/>
	<rect id="XMLID_11_" x="126.5" y="104.3" width="17.5" height="17.5"/>
	<rect id="XMLID_10_" x="37.5" y="68.9" width="17.5" height="17.5"/>
	<rect id="XMLID_9_" x="37.5" y="133" width="17.5" height="17.5"/>
	<rect id="XMLID_8_" x="37.5" y="163.1" width="17.5" height="17.5"/>
	<g id="XMLID_150_">
		<path id="XMLID_7_" d="M200.1,188.8h-8.7c-3.3-5.7-9.4-9.5-16.4-9.5h-37.6c0.5-1.3,0.8-2.8,0.8-4.4c0-6.6-5.3-11.9-11.9-11.9
			h-26.1c-6.6,0-11.9,5.3-11.9,11.9c0,1.5,0.3,3,0.8,4.4h-2.8c-9.6,0-17.6,7.2-18.8,16.5H10.7c-2.7,0-4.8,2.2-4.8,4.8
			c0,2.7,2.2,4.8,4.8,4.8h56.8c0.9,7.2,7.1,12.8,14.6,12.8h118c8.1,0,14.7-6.6,14.7-14.7S208.3,188.8,200.1,188.8z"/>
		<path id="XMLID_151_" d="M199.8,222.1H81.1c-8.3,0-15,6.7-15,15c0,8.3,6.7,15,15,15h118.7c8.3,0,15-6.7,15-15
			C214.8,228.9,208.1,222.1,199.8,222.1z M80.4,246.7c-5.5,0-9.9-4.4-9.9-9.9c0-5.5,4.4-9.9,9.9-9.9c5.5,0,9.9,4.4,9.9,9.9
			C90.3,242.2,85.9,246.7,80.4,246.7z M110.2,246.7c-5.5,0-9.9-4.4-9.9-9.9c0-5.5,4.4-9.9,9.9-9.9c5.5,0,9.9,4.4,9.9,9.9
			C120.1,242.2,115.7,246.7,110.2,246.7z M140,246.7c-5.5,0-9.9-4.4-9.9-9.9c0-5.5,4.4-9.9,9.9-9.9c5.5,0,9.9,4.4,9.9,9.9
			C149.9,242.2,145.5,246.7,140,246.7z M169.8,246.7c-5.5,0-9.9-4.4-9.9-9.9c0-5.5,4.4-9.9,9.9-9.9c5.5,0,9.9,4.4,9.9,9.9
			C179.7,242.2,175.3,246.7,169.8,246.7z M199.6,246.7c-5.5,0-9.9-4.4-9.9-9.9c0-5.5,4.4-9.9,9.9-9.9c5.5,0,9.9,4.4,9.9,9.9
			C209.6,242.2,205.1,246.7,199.6,246.7z"/>
	</g>
</g>
</svg>