<?xml version="1.0" encoding="iso-8859-1"?>
<!-- Uploaded to: SVG Repo, www.svgrepo.com, Generator: SVG Repo Mixer Tools -->
<svg height="800px" width="800px" version="1.1" id="Layer_1" xmlns="http://www.w3.org/2000/svg" xmlns:xlink="http://www.w3.org/1999/xlink" 
	 viewBox="0 0 507.905 507.905" xml:space="preserve">
<path style="fill:#E57373;" d="M276.221,312.705c0.8-11.2-7.6-22.4-19.2-25.2c-1.6-0.4-3.2-0.4-4.8-0.4c-4.8,0-9.2,1.6-12,4.8
	c-2.8,2.8-4.4,6.4-4.8,10.4c-6.4,73.2,17.6,138.8,69.2,190.4c4.8,4.8,10.8,7.2,16.8,7.2c4.8,0,9.2-1.6,12-4.8
	c3.6-3.6,5.2-8.4,4.8-13.6c-0.4-5.6-2.8-10.8-7.2-15.2C289.421,424.705,271.021,373.105,276.221,312.705z"/>
<g>
	<path style="fill:#4DB6AC;" d="M301.821,235.505c-4,0.4-7.6,2-10.4,4.8c-4,4-5.6,10.4-4.4,16.8c2.8,11.2,14,20,25.2,19.2
		c6.8-0.4,13.2-0.8,20-0.8c52,0,97.2,18.8,134,55.6c4.8,4.8,10.8,7.2,16.8,7.2c4.8,0,9.2-1.6,12-4.8c7.2-7.2,6-20-2.4-28.8
		C441.021,253.505,374.621,229.105,301.821,235.505z"/>
	<path style="fill:#4DB6AC;" d="M195.421,230.705c-60,5.6-112-12.8-153.2-54c-4.4-4.4-10.4-7.2-16.4-7.2c-4.8,0-9.2,1.6-12,4.8
		c-3.6,3.6-5.2,8.4-4.8,13.6c0.4,5.6,2.8,10.8,7.2,15.2c51.2,51.2,117.2,74.8,189.6,68.4c4-0.4,7.6-2,10.4-4.8
		c4-4,5.6-10.4,4.4-16.8C217.821,238.305,206.621,229.905,195.421,230.705z"/>
</g>
<path style="fill:#E57373;" d="M187.021,7.905c-4.8,0-9.2,1.6-12,4.8c-3.6,3.6-5.2,8.4-4.8,13.6c0.4,5.6,2.8,10.8,7.2,15.2
	c41.2,41.2,59.6,92.8,54,153.2c-1.2,11.2,7.6,22.4,18.8,24.8c1.6,0.4,3.2,0.4,4.8,0.4l0,0c4.8,0,9.2-1.6,12-4.8
	c2.8-2.8,4.4-6.4,4.8-10.4c6.4-72.8-17.2-138.4-68.4-189.6C199.021,10.305,193.021,7.905,187.021,7.905z"/>
<path d="M321.421,507.905c-0.8,0-1.2,0-2,0c-7.6-0.4-14.8-4-20.4-9.6c-53.2-53.2-78-121.6-71.6-196.8c0.4-6,2.8-11.2,6.8-15.2l0,0
	c6-6,15.2-8.4,24.4-6.4c15.2,3.6,26.8,18.4,25.2,33.6c-5.2,58,12.8,107.6,52.4,147.6c5.6,5.6,8.8,12.8,9.6,20.4
	c0.4,7.6-2,14.8-7.2,19.6C334.621,505.505,328.221,507.905,321.421,507.905z M240.221,291.905c-2.8,2.8-4.4,6.4-4.8,10.4
	c-6.4,73.2,17.6,138.8,69.2,190.4c4.4,4.4,9.6,6.8,15.2,7.2c5.2,0.4,10-1.2,13.6-4.8c3.6-3.6,5.2-8.4,4.8-13.6
	c-0.4-5.6-2.8-10.8-7.2-15.2c-41.6-41.6-60-93.2-54.8-154c0.8-11.2-7.6-22.4-19.2-25.2
	C250.621,285.905,244.221,287.505,240.221,291.905z"/>
<path d="M483.021,346.305c-0.8,0-1.2,0-2,0c-7.6-0.4-14.8-4-20.4-9.6c-40-40-89.6-57.6-147.6-52.4c-15.2,1.2-30-10-33.6-25.2
	c-2-9.2,0.4-18,6.4-24.4c4-4,9.2-6.4,15.2-6.8c75.2-6.4,143.6,18,196.8,71.6c11.6,11.6,12.8,29.6,2.4,40
	C496.221,343.905,489.821,346.305,483.021,346.305z M332.221,275.505c52,0,96.8,18.8,134,55.6c4.4,4.4,9.6,6.8,15.2,7.2
	c5.2,0.4,10-1.2,13.6-4.8c7.2-7.2,6-20-2.4-28.8c-51.6-51.6-117.6-75.6-190.4-69.2c-4,0.4-7.6,2-10.4,4.8l0,0
	c-4,4-5.6,10.4-4.4,16.8c2.8,11.6,14,20,25.2,19.2C319.021,275.505,325.821,275.505,332.221,275.505z"/>
<path d="M181.821,280.305c-65.6,0-124.4-24.4-171.6-71.6c-5.6-5.6-8.8-12.8-9.6-20c-0.4-7.6,2-14.8,7.2-19.6
	c5.2-5.2,12-7.6,19.6-7.2s14.4,4,20,9.6c39.6,39.6,89.2,57.2,146.8,52c15.2-1.2,30,10,33.6,25.2c2,9.2-0.4,18-6.4,24l0,0l0,0l0,0
	c-4,4-9.2,6.4-15.2,7.2C197.821,279.905,189.821,280.305,181.821,280.305z M25.421,169.505c-4.8,0-8.8,1.6-12,4.8
	c-3.6,3.6-5.2,8.4-4.8,13.6c0.4,5.6,2.8,10.8,7.2,15.2c51.2,51.2,116.8,74.8,189.6,68.4c4-0.4,7.6-2,10.4-4.8l0,0
	c4-4,5.6-10.4,4.4-16.8c-2.4-11.6-13.6-20-24.8-18.8c-60.4,5.6-112-12.8-153.2-54c-4.4-4.4-9.6-6.8-15.2-7.2
	C26.621,169.505,26.221,169.505,25.421,169.505z"/>
<path d="M255.021,227.905c-2,0-4.4-0.4-6.4-0.8c-15.2-3.6-26.4-18.4-25.2-33.6c5.2-58-12.4-107.2-52-146.8c-5.6-5.6-8.8-12.8-9.6-20
	c-0.4-7.6,2-14.8,7.2-19.6c10.4-10.4,28.4-9.2,40,2.4c53.2,53.2,77.6,120.8,70.8,196c-0.4,6-2.8,11.2-7.2,15.2l0,0
	C268.221,225.505,261.821,227.905,255.021,227.905z M187.021,7.905c-4.4,0-8.8,1.6-12,4.8c-3.6,3.6-5.2,8.4-4.8,13.6
	c0.4,5.6,2.8,10.8,7.2,15.2c41.2,41.2,59.6,92.8,54,153.2c-1.2,11.2,7.6,22.4,18.8,24.8c6.4,1.6,12.8,0,16.8-4.4
	c2.8-2.8,4.4-6.4,4.8-10.4c6.4-72.8-17.2-138.4-68.4-189.6C199.021,10.305,193.021,7.905,187.021,7.905z"/>
<path d="M261.421,206.705C261.021,206.705,261.021,206.705,261.421,206.705c-2.4-0.4-4-2-4-4.4c0.4-3.2-3.2-5.6-9.6-9.2
	c-1.6-0.8-3.6-2-4.8-3.2c-1.2-0.8-1.6-2-1.6-3.2s0.8-2.4,2-3.2c1.6-1.2,3.6-2.4,5.2-3.2c6-3.2,10-5.6,10-8.8c0-3.2-4-5.2-10.4-8
	c-1.6-0.8-3.6-1.6-5.2-2.4c-1.2-0.8-2-1.6-2-3.2c0-1.2,0.4-2.8,1.2-3.6c1.2-1.2,2.8-2.4,4-3.2l0.4-0.4c5.6-4,9.2-6.8,8.8-10
	s-4.8-4.4-11.6-6.4c-1.6-0.4-4-1.2-5.6-2c-1.2-0.4-2-1.6-2.4-2.8c-0.4-1.2,0-2.8,0.8-3.6c1.2-1.2,2.8-3.2,4-4.4
	c5.2-4.8,8-8,7.2-11.2c-0.8-2.8-5.2-4-12.4-4.8c-2-0.4-4-0.8-6-1.2c-1.2-0.4-2.4-1.2-2.8-2.4s-0.4-2.8,0.4-3.6
	c0.8-1.6,2.4-3.2,3.2-4.4c4.4-6,7.2-9.6,5.6-12.4c-1.2-2.8-6-3.2-12.8-3.2h-0.8c-1.6,0-3.6,0-5.2,0c-1.2,0-2.4-0.8-3.2-2
	s-0.8-2.4,0-3.6c0.8-1.6,2-3.6,2.8-4.8c3.6-6.4,5.6-10.4,4-12.8s-6-2.4-13.2-1.2c-1.6,0.4-4,0.4-6,0.8c-1.2,0-2.8-0.4-3.6-1.6
	s-1.2-2.4-0.8-3.6c0.4-1.6,1.6-4,2-5.6c2.8-6.4,4-10.8,2-13.2c-2-2.4-6.4-1.2-13.2,0.4c-2,0.4-4.4-0.8-4.8-2.8
	c-0.4-2,0.8-4.4,2.8-4.8c7.2-2,15.6-4.4,21.2,2c5.2,6,2.4,13.6-0.4,20.4c7.2-0.8,15.2-1.6,20,4.8c4.4,6.8,0.8,14-2.8,20.4
	c7.2,0,15.6,0.4,19.2,7.6c3.6,7.2-1.2,14-5.6,19.6c7.6,1.2,15.2,2.8,18,10c2.4,7.6-3.2,13.6-8.4,18.8c7.2,2,14.8,4.8,16,12.4
	c1.2,8-5.2,12.8-11.2,17.2c6.8,3.2,14,6.8,14.4,14.8s-6.8,12-13.2,15.6c6.4,4,12.8,8.4,12.4,16.4
	C265.021,205.105,263.421,206.705,261.421,206.705z"/>
<path d="M312.221,486.305c-3.6,0-7.2-1.2-9.6-4c-5.2-6-2.4-13.6,0.4-20.4c-7.2,0.8-15.2,1.6-20-4.8c-4.4-6.8-0.8-14,2.8-20.4
	c-7.6,0-15.6-0.4-19.2-7.6c-3.6-7.2,1.2-14,5.6-19.6c-7.6-1.2-15.2-2.8-18-10c-2.4-7.6,3.2-13.6,8.4-18.8c-7.2-2-14.8-4.8-16-12.4
	c-1.2-8,5.2-12.8,11.2-17.2c-6.8-3.2-14-6.8-14.4-14.8s6.8-12,13.2-15.6c-6.4-4-12.8-8.4-12.4-16.4c0-2.4,2-4,4.4-3.6
	c2.4,0,4,2,3.6,4.4c-0.4,3.2,3.2,5.6,9.6,9.2c1.6,0.8,3.6,2,4.8,3.2c1.2,0.8,1.6,2,1.6,3.2s-0.8,2.4-2,3.2c-1.6,1.2-3.6,2-5.2,3.2
	c-6,3.2-10,5.6-10,8.8c0,3.2,4,5.2,10.4,8c1.6,0.8,3.6,1.6,5.2,2.4c1.2,0.8,2,1.6,2,3.2c0,1.2-0.4,2.8-1.2,3.6
	c-1.2,1.2-2.8,2.4-4.4,3.2l-0.4,0.4c-5.6,4-9.2,6.8-8.8,10s4.8,4.4,11.6,6.4c1.6,0.4,4,1.2,5.6,2c1.2,0.4,2,1.6,2.4,2.8
	c0.4,1.2,0,2.8-0.8,3.6c-1.2,1.2-2.8,3.2-4,4.4c-5.2,4.8-8,8-7.2,11.2c0.8,2.8,5.2,4,12.4,4.8c2,0.4,4,0.8,6,1.2
	c1.2,0.4,2.4,1.2,2.8,2.4c0.4,1.2,0.4,2.8-0.4,3.6c-1.2,1.6-2.4,3.6-3.6,4.8c-4.4,5.6-6.8,9.2-5.6,12s6,3.2,12.8,3.2c2,0,4.4,0,6,0
	c1.2,0,2.4,0.8,3.2,2s0.8,2.4,0,3.6c-0.8,1.6-1.6,3.2-2.4,4.4l-0.4,0.8c-3.6,6-5.6,10-4,12.8c1.6,2.4,6,2,13.2,1.2
	c1.6-0.4,4-0.4,6-0.8c1.2,0,2.4,0.4,3.6,1.6c0.8,1.2,1.2,2.4,0.8,3.6c-0.4,1.6-1.6,4-2,5.6c-2.8,6.4-4,10.8-2,13.2
	c2,2.4,6.4,1.2,13.2-0.4c2-0.4,4.4,0.8,4.8,2.8c0.4,2-0.8,4.4-2.8,4.8C319.821,485.105,315.821,486.305,312.221,486.305z"/>
<path d="M171.821,265.905h-0.4c-8-0.4-11.6-7.6-14.8-14.4c-4.4,6-9.2,12.4-17.2,11.2c-8-1.2-10.4-9.2-12.4-16
	c-5.2,5.6-11.2,10.8-18.8,8.4s-9.2-10.4-10-18c-6,4.4-12.4,9.2-19.6,5.6c-7.2-3.6-7.6-11.6-7.6-19.2c-6.4,3.6-13.6,7.6-20.4,2.8
	c-6.8-4.4-6-12.4-4.8-20c-6.8,2.8-14.4,5.6-20.4,0.4c-6.4-5.6-4-14-2-21.2c0.4-2,2.8-3.2,4.8-2.8c2,0.4,3.2,2.8,2.8,4.8
	c-1.6,6.4-2.8,11.2-0.4,13.2c2.4,2,6.8,0.4,13.2-2c1.6-0.8,3.6-1.6,5.6-2c1.2-0.4,2.8,0,3.6,0.8c1.2,0.8,1.6,2,1.6,3.6
	s-0.4,4-0.4,5.6v0.4c-0.8,7.2-1.2,11.2,1.2,13.2c2.8,1.6,6.8-0.4,12.8-3.6c1.6-0.8,3.6-2,5.2-2.8c1.2-0.4,2.4-0.4,3.6,0
	c1.2,0.8,2,2,2,3.2c0,1.6,0,4,0,5.6c0,7.2,0.4,11.6,3.2,13.2c2.8,1.2,6.4-1.2,12-5.6c1.2-1.2,3.2-2.4,4.8-3.6
	c1.2-0.8,2.4-0.8,3.6-0.4c1.2,0.4,2,1.6,2.4,2.8c0.4,2,0.8,4.4,1.2,6c1.2,7.2,2,11.2,4.8,12.4c2.8,0.8,6-2,11.2-7.2
	c1.2-1.6,2.8-3.2,4.4-4.4c0.8-0.8,2.4-1.2,3.6-0.8c1.2,0.4,2.4,1.2,2.8,2.4c0.8,1.6,1.2,4,2,5.6c2,6.8,3.6,10.8,6.4,11.6
	c3.2,0.4,5.6-2.8,10-8.4l0.4-0.8c0.8-1.2,2-2.8,3.2-4c0.8-1.2,2-1.6,3.6-1.2c1.2,0,2.4,0.8,3.2,2c0.8,1.6,2,3.6,2.4,5.2
	c2.8,6.4,4.8,10.4,8,10.4s5.2-3.6,8.8-9.6c0.8-1.6,2-3.6,3.2-5.2c0.8-1.2,2-1.6,3.2-2c1.2,0,2.4,0.4,3.2,1.6
	c1.2,1.6,2.4,3.6,3.2,4.8c3.6,6,6,9.6,9.2,9.6c2.4,0,4,1.6,4.4,3.6c0,2-1.6,4-3.6,4.4c-8,0.8-12.4-6-16.4-12.4
	C183.421,259.105,179.421,265.905,171.821,265.905z"/>
<path d="M480.621,326.305c-0.4,0-0.8,0-1.2,0c-2-0.4-3.2-2.8-2.8-4.8c1.6-6.4,2.8-11.2,0.4-13.2s-6.8-0.4-13.2,2
	c-1.6,0.8-3.6,1.6-5.6,2c-1.2,0.4-2.8,0-3.6-0.8c-1.2-0.8-1.6-2-1.6-3.6c0-2,0.4-4.4,0.8-6c0.8-6.8,1.2-11.2-1.2-13.2
	c-2.8-1.6-6.8,0.4-12.8,3.6c-1.6,0.8-3.6,2-5.2,2.8c-1.2,0.4-2.4,0.4-3.6,0c-1.2-0.8-2-2-2-3.2c0-1.6,0-4,0-5.6
	c0-7.6-0.4-11.6-3.2-13.2c-2.8-1.2-6.4,1.2-12,5.6l-0.4,0.4c-1.2,1.2-3.2,2.4-4.4,3.2c-1.2,0.8-2.4,0.8-3.6,0.4
	c-1.2-0.4-2-1.6-2.4-2.8c-0.4-1.6-0.8-3.6-0.8-5.2v-0.4c-1.2-7.2-2-11.2-4.8-12.4c-2.8-0.8-6,2-10.8,7.2c-1.2,1.2-2.8,3.2-4.4,4.4
	c-0.8,0.8-2.4,1.2-3.6,0.8c-1.2-0.4-2.4-1.2-2.8-2.4c-0.8-1.6-1.2-4-2-5.6c-2-6.8-3.6-10.8-6.4-11.6c-3.2-0.4-5.6,2.8-10,8.4
	c-1.2,1.6-2.4,3.6-3.6,4.8c-0.8,1.2-2,1.6-3.6,1.6c-1.2,0-2.4-0.8-3.2-2c-0.8-1.6-1.6-3.6-2.4-5.2c-2.8-6.8-4.8-10.4-8-10.8
	c-3.2,0-5.2,3.6-8.8,9.6c-1.2,2.4-2.4,4-3.2,5.2s-2,1.6-3.2,2l0,0c-1.2,0-2.4-0.8-3.2-1.6c-1.2-1.6-2.4-3.6-3.2-4.8
	c-3.6-6-6.4-9.6-9.2-9.6c-2.4,0.4-4-1.6-4.4-3.6c0-2.4,1.6-4,3.6-4.4c8-0.8,12.4,6,16.4,12.4c3.6-6.4,7.6-13.6,15.6-13.2
	s11.6,7.6,14.8,14.4c4.4-6,9.6-12.4,17.2-11.2c8,1.2,10.4,9.2,12.8,16.4c5.2-5.2,11.2-10.8,18.8-8.4s9.2,10.4,10,18
	c6-4.4,12.4-9.2,19.6-6c7.2,3.6,7.6,11.6,7.6,19.2c6.4-3.6,13.6-7.6,20.4-2.8c6.8,4.4,6,12.4,4.8,20c6.8-2.8,14.4-5.6,20.4-0.4
	c6.4,5.6,4,14,2,21.2C483.821,325.105,482.221,326.305,480.621,326.305z"/>
</svg>