<?xml version="1.0" encoding="iso-8859-1"?>
<!-- Generator: Adobe Illustrator 19.0.0, SVG Export Plug-In . SVG Version: 6.00 Build 0)  -->
<svg version="1.1" id="Layer_1" xmlns="http://www.w3.org/2000/svg" xmlns:xlink="http://www.w3.org/1999/xlink" x="0px" y="0px"
	 viewBox="0 0 512 512" style="enable-background:new 0 0 512 512;" xml:space="preserve">
<polygon style="fill:white;" points="250.901,256 127.49,501.801 261.1,501.801 384.51,256 261.1,10.199 127.49,10.199 "/>
<g>
	<path style="fill:#248A9C;" d="M261.1,512H127.49c-3.538,0-6.822-1.834-8.681-4.845c-1.858-3.011-2.021-6.769-0.434-9.931
		L239.488,256L118.375,14.776c-1.587-3.163-1.423-6.92,0.434-9.931C120.667,1.834,123.952,0,127.49,0H261.1
		c3.857,0,7.384,2.177,9.115,5.623l123.41,245.801c1.445,2.879,1.445,6.274,0,9.154l-123.41,245.801
		C268.484,509.824,264.957,512,261.1,512z M144.023,491.602h110.785L373.097,256L254.808,20.398H144.023l115.992,231.025
		c1.445,2.879,1.445,6.274,0,9.154L144.023,491.602z"/>
	<path style="fill:#248A9C;" d="M265.369,108.113c-3.735,0-7.332-2.059-9.123-5.625l-3.241-6.456
		c-2.527-5.034-0.496-11.164,4.539-13.691c5.033-2.525,11.164-0.496,13.691,4.538l3.241,6.456
		c2.527,5.034,0.496,11.164-4.539,13.691C268.47,107.763,266.907,108.113,265.369,108.113z"/>
	<path style="fill:#248A9C;" d="M344.741,266.201c-3.735,0-7.332-2.059-9.123-5.625l-62.985-125.45
		c-2.527-5.035-0.496-11.164,4.539-13.691c5.033-2.526,11.164-0.497,13.691,4.538l62.985,125.45
		c2.527,5.035,0.496,11.164-4.539,13.691C347.841,265.851,346.28,266.201,344.741,266.201z"/>
</g>
<g>
</g>
<g>
</g>
<g>
</g>
<g>
</g>
<g>
</g>
<g>
</g>
<g>
</g>
<g>
</g>
<g>
</g>
<g>
</g>
<g>
</g>
<g>
</g>
<g>
</g>
<g>
</g>
<g>
</g>
</svg>
